<svg width="1920" height="1256" viewBox="0 0 1920 1256" fill="none" xmlns="http://www.w3.org/2000/svg">
<path fill-rule="evenodd" clip-rule="evenodd" d="M301.549 294.059C109.868 294.059 -61.5805 363.658 -98 406.059L-97.9999 455.559H-27.2558V1255.06H1945.57V455.559H1952.42C1957.76 409.513 1970.19 349.356 1982.88 287.923C2021.73 99.7952 2063.06 -100.286 1910.98 56.3693C1624.29 351.697 1140.69 414.395 864.557 372.946C776.293 359.697 717.999 345.959 666.119 333.734C571.205 311.366 497.76 294.059 301.549 294.059Z" fill="url(#paint0_linear)"/>
<path fill-rule="evenodd" clip-rule="evenodd" d="M1810.56 435.606C1874.1 448.39 1939.47 429.16 1999.35 453.966C2072.81 484.394 2167.08 514.563 2187.04 591.555C2207.13 669.03 2119.47 730.338 2090.33 804.876C2063.74 872.886 2086.26 969.665 2024.19 1008.09C1961.51 1046.9 1884.24 975.945 1810.56 978.088C1733.06 980.343 1661.57 1044.37 1587.71 1020.79C1504.63 994.273 1423.63 931.337 1400.57 847.204C1377.68 763.649 1446.84 686.801 1473.6 604.402C1500.36 521.995 1479.71 403.794 1557.15 365C1637.52 324.739 1722.44 417.878 1810.56 435.606Z" fill="#100077" fill-opacity="0.5"/>
<path fill-rule="evenodd" clip-rule="evenodd" d="M225.586 533.948C305.723 531.306 400.014 523.14 455.464 581.027C510.496 638.478 465.485 735.742 491.038 811.066C517.166 888.087 633.104 944.195 604.493 1020.33C575.419 1097.7 453.679 1072.7 379.216 1108.63C323.705 1135.41 285.737 1189.67 225.586 1203.12C154.346 1219.06 73.1523 1231 12.303 1190.69C-49.1309 1149.99 -54.7557 1065.41 -84.2145 997.887C-117.82 920.854 -190.525 850.122 -172.035 768.142C-153.388 685.463 -66.5903 638.855 6.4646 595.826C73.4958 556.346 147.825 536.511 225.586 533.948Z" fill="#100077" fill-opacity="0.5"/>
<defs>
<linearGradient id="paint0_linear" x1="960.5" y1="0" x2="960.5" y2="1255.06" gradientUnits="userSpaceOnUse">
<stop stop-color="#100077"/>
<stop offset="0.369792" stop-color="#0F016B"/>
<stop offset="0.677083" stop-color="#0C005C"/>
<stop offset="1" stop-color="#0B0051"/>
</linearGradient>
</defs>
</svg>
